<mxfile host="app.diagrams.net" agent="Mozilla/5.0 (Windows NT 10.0; Win64; x64) AppleWebKit/537.36 (KHTML, like Gecko) Chrome/137.0.0.0 Safari/537.36" version="27.1.6">
  <diagram name="Página-1" id="UubFM1cYbvkRw-unpNSV">
    <mxGraphModel dx="951" dy="463" grid="1" gridSize="10" guides="1" tooltips="1" connect="1" arrows="1" fold="1" page="1" pageScale="1" pageWidth="827" pageHeight="1169" math="0" shadow="0">
      <root>
        <mxCell id="0" />
        <mxCell id="1" parent="0" />
        <mxCell id="cK3SOVMdzuHlb-Z2l-2t-1" value="Produtor" style="swimlane;fontStyle=1;align=center;verticalAlign=top;childLayout=stackLayout;horizontal=1;startSize=26;horizontalStack=0;resizeParent=1;resizeParentMax=0;resizeLast=0;collapsible=1;marginBottom=0;whiteSpace=wrap;html=1;fillColor=#647687;strokeColor=#314354;fontColor=#ffffff;" parent="1" vertex="1">
          <mxGeometry x="20" y="75" width="240" height="110" as="geometry" />
        </mxCell>
        <mxCell id="cK3SOVMdzuHlb-Z2l-2t-2" value="- nome: String&lt;div&gt;- cpfCnpj: String&lt;/div&gt;&lt;div&gt;- telefone&lt;span style=&quot;background-color: transparent; color: light-dark(rgb(0, 0, 0), rgb(255, 255, 255));&quot;&gt;: String&lt;/span&gt;&lt;/div&gt;&lt;div&gt;- email&lt;span style=&quot;background-color: transparent; color: light-dark(rgb(0, 0, 0), rgb(255, 255, 255));&quot;&gt;: String&lt;/span&gt;&lt;/div&gt;&lt;div&gt;- categoria&lt;span style=&quot;background-color: transparent; color: light-dark(rgb(0, 0, 0), rgb(255, 255, 255));&quot;&gt;: String&lt;/span&gt;&lt;/div&gt;" style="text;strokeColor=none;fillColor=none;align=left;verticalAlign=top;spacingLeft=4;spacingRight=4;overflow=hidden;rotatable=0;points=[[0,0.5],[1,0.5]];portConstraint=eastwest;whiteSpace=wrap;html=1;" parent="cK3SOVMdzuHlb-Z2l-2t-1" vertex="1">
          <mxGeometry y="26" width="240" height="84" as="geometry" />
        </mxCell>
        <mxCell id="cK3SOVMdzuHlb-Z2l-2t-5" value="Produto" style="swimlane;fontStyle=1;align=center;verticalAlign=top;childLayout=stackLayout;horizontal=1;startSize=26;horizontalStack=0;resizeParent=1;resizeParentMax=0;resizeLast=0;collapsible=1;marginBottom=0;whiteSpace=wrap;html=1;fillColor=#647687;strokeColor=#314354;fontColor=#ffffff;" parent="1" vertex="1">
          <mxGeometry x="470" y="55" width="220" height="150" as="geometry" />
        </mxCell>
        <mxCell id="cK3SOVMdzuHlb-Z2l-2t-6" value="- nome: String&lt;div&gt;- descricao&lt;span style=&quot;background-color: transparent; color: light-dark(rgb(0, 0, 0), rgb(255, 255, 255));&quot;&gt;: String&lt;/span&gt;&lt;/div&gt;&lt;div&gt;- categoria&lt;span style=&quot;background-color: transparent; color: light-dark(rgb(0, 0, 0), rgb(255, 255, 255));&quot;&gt;: String&lt;/span&gt;&lt;/div&gt;&lt;div&gt;&lt;span style=&quot;background-color: transparent; color: light-dark(rgb(0, 0, 0), rgb(255, 255, 255));&quot;&gt;- produtor: Produtor&lt;/span&gt;&lt;/div&gt;&lt;div&gt;- preço: double&lt;/div&gt;" style="text;strokeColor=none;fillColor=none;align=left;verticalAlign=top;spacingLeft=4;spacingRight=4;overflow=hidden;rotatable=0;points=[[0,0.5],[1,0.5]];portConstraint=eastwest;whiteSpace=wrap;html=1;" parent="cK3SOVMdzuHlb-Z2l-2t-5" vertex="1">
          <mxGeometry y="26" width="220" height="74" as="geometry" />
        </mxCell>
        <mxCell id="cK3SOVMdzuHlb-Z2l-2t-7" value="" style="line;strokeWidth=1;fillColor=none;align=left;verticalAlign=middle;spacingTop=-1;spacingLeft=3;spacingRight=3;rotatable=0;labelPosition=right;points=[];portConstraint=eastwest;strokeColor=inherit;" parent="cK3SOVMdzuHlb-Z2l-2t-5" vertex="1">
          <mxGeometry y="100" width="220" height="10" as="geometry" />
        </mxCell>
        <mxCell id="cK3SOVMdzuHlb-Z2l-2t-8" value="&lt;div&gt;+ produtorAssociado(): Classesbasicas.Produtor&lt;/div&gt;&lt;div&gt;&lt;br&gt;&lt;/div&gt;" style="text;strokeColor=none;fillColor=none;align=left;verticalAlign=top;spacingLeft=4;spacingRight=4;overflow=hidden;rotatable=0;points=[[0,0.5],[1,0.5]];portConstraint=eastwest;whiteSpace=wrap;html=1;" parent="cK3SOVMdzuHlb-Z2l-2t-5" vertex="1">
          <mxGeometry y="110" width="220" height="40" as="geometry" />
        </mxCell>
        <mxCell id="cK3SOVMdzuHlb-Z2l-2t-9" value="EdicaoFeira" style="swimlane;fontStyle=1;align=center;verticalAlign=top;childLayout=stackLayout;horizontal=1;startSize=26;horizontalStack=0;resizeParent=1;resizeParentMax=0;resizeLast=0;collapsible=1;marginBottom=0;whiteSpace=wrap;html=1;fillColor=#647687;strokeColor=#314354;fontColor=#ffffff;" parent="1" vertex="1">
          <mxGeometry x="820" y="20" width="280" height="160" as="geometry" />
        </mxCell>
        <mxCell id="cK3SOVMdzuHlb-Z2l-2t-10" value="- data: Localdatetime&lt;div&gt;- horario: Localdatetime&lt;/div&gt;&lt;div&gt;- local&lt;span style=&quot;background-color: transparent; color: light-dark(rgb(0, 0, 0), rgb(255, 255, 255));&quot;&gt;: String&lt;/span&gt;&lt;/div&gt;&lt;div&gt;&lt;span style=&quot;background-color: transparent; color: light-dark(rgb(0, 0, 0), rgb(255, 255, 255));&quot;&gt;-descrição: String&lt;/span&gt;&lt;/div&gt;&lt;div&gt;- numeroMaximoBancas: int&lt;/div&gt;" style="text;strokeColor=none;fillColor=none;align=left;verticalAlign=top;spacingLeft=4;spacingRight=4;overflow=hidden;rotatable=0;points=[[0,0.5],[1,0.5]];portConstraint=eastwest;whiteSpace=wrap;html=1;" parent="cK3SOVMdzuHlb-Z2l-2t-9" vertex="1">
          <mxGeometry y="26" width="280" height="84" as="geometry" />
        </mxCell>
        <mxCell id="cK3SOVMdzuHlb-Z2l-2t-11" value="" style="line;strokeWidth=1;fillColor=none;align=left;verticalAlign=middle;spacingTop=-1;spacingLeft=3;spacingRight=3;rotatable=0;labelPosition=right;points=[];portConstraint=eastwest;strokeColor=inherit;" parent="cK3SOVMdzuHlb-Z2l-2t-9" vertex="1">
          <mxGeometry y="110" width="280" height="10" as="geometry" />
        </mxCell>
        <mxCell id="cK3SOVMdzuHlb-Z2l-2t-12" value="+ controleDeBancas(): int&lt;div&gt;+ impedirInscricaoNoLimite(): boolean &lt;br&gt;&lt;/div&gt;&lt;div&gt;&lt;br&gt;&lt;/div&gt;" style="text;strokeColor=none;fillColor=none;align=left;verticalAlign=top;spacingLeft=4;spacingRight=4;overflow=hidden;rotatable=0;points=[[0,0.5],[1,0.5]];portConstraint=eastwest;whiteSpace=wrap;html=1;" parent="cK3SOVMdzuHlb-Z2l-2t-9" vertex="1">
          <mxGeometry y="120" width="280" height="40" as="geometry" />
        </mxCell>
        <mxCell id="cK3SOVMdzuHlb-Z2l-2t-13" value="Participacao" style="swimlane;fontStyle=1;align=center;verticalAlign=top;childLayout=stackLayout;horizontal=1;startSize=26;horizontalStack=0;resizeParent=1;resizeParentMax=0;resizeLast=0;collapsible=1;marginBottom=0;whiteSpace=wrap;html=1;fillColor=#647687;fontColor=#ffffff;strokeColor=#314354;" parent="1" vertex="1">
          <mxGeometry x="20" y="320" width="240" height="140" as="geometry" />
        </mxCell>
        <mxCell id="cK3SOVMdzuHlb-Z2l-2t-14" value="- produtor: Produtor&lt;div&gt;- edicao: EdicaoFeira&lt;/div&gt;&lt;div&gt;- banca: int&lt;/div&gt;" style="text;strokeColor=none;fillColor=none;align=left;verticalAlign=top;spacingLeft=4;spacingRight=4;overflow=hidden;rotatable=0;points=[[0,0.5],[1,0.5]];portConstraint=eastwest;whiteSpace=wrap;html=1;" parent="cK3SOVMdzuHlb-Z2l-2t-13" vertex="1">
          <mxGeometry y="26" width="240" height="54" as="geometry" />
        </mxCell>
        <mxCell id="cK3SOVMdzuHlb-Z2l-2t-15" value="" style="line;strokeWidth=1;fillColor=none;align=left;verticalAlign=middle;spacingTop=-1;spacingLeft=3;spacingRight=3;rotatable=0;labelPosition=right;points=[];portConstraint=eastwest;strokeColor=inherit;" parent="cK3SOVMdzuHlb-Z2l-2t-13" vertex="1">
          <mxGeometry y="80" width="240" height="10" as="geometry" />
        </mxCell>
        <mxCell id="cK3SOVMdzuHlb-Z2l-2t-16" value="+ inscreverEmEdicaoFutura(): void&lt;div&gt;+ alocarBanca(): void&lt;/div&gt;&lt;div&gt;+ verificarProdutorAtivo(): boolean&lt;/div&gt;&lt;div&gt;&lt;br&gt;&lt;/div&gt;" style="text;strokeColor=none;fillColor=none;align=left;verticalAlign=top;spacingLeft=4;spacingRight=4;overflow=hidden;rotatable=0;points=[[0,0.5],[1,0.5]];portConstraint=eastwest;whiteSpace=wrap;html=1;" parent="cK3SOVMdzuHlb-Z2l-2t-13" vertex="1">
          <mxGeometry y="90" width="240" height="50" as="geometry" />
        </mxCell>
        <mxCell id="cK3SOVMdzuHlb-Z2l-2t-17" value="Venda" style="swimlane;fontStyle=1;align=center;verticalAlign=top;childLayout=stackLayout;horizontal=1;startSize=26;horizontalStack=0;resizeParent=1;resizeParentMax=0;resizeLast=0;collapsible=1;marginBottom=0;whiteSpace=wrap;html=1;fillColor=#647687;fontColor=#ffffff;strokeColor=#314354;" parent="1" vertex="1">
          <mxGeometry x="476" y="330" width="206" height="170" as="geometry" />
        </mxCell>
        <mxCell id="cK3SOVMdzuHlb-Z2l-2t-18" value="- produtor: Produtor&lt;div&gt;&lt;span style=&quot;background-color: transparent; color: light-dark(rgb(0, 0, 0), rgb(255, 255, 255));&quot;&gt;- itens: ArrayList&amp;lt;ItemVenda&amp;gt;&amp;nbsp;&lt;/span&gt;&lt;/div&gt;&lt;div&gt;&lt;span style=&quot;background-color: transparent; color: light-dark(rgb(0, 0, 0), rgb(255, 255, 255));&quot;&gt;- edicao: EdicaoFeira&lt;/span&gt;&lt;/div&gt;&lt;div&gt;&lt;span style=&quot;background-color: transparent; color: light-dark(rgb(0, 0, 0), rgb(255, 255, 255));&quot;&gt;- vendaTotal: double&lt;/span&gt;&lt;/div&gt;&lt;div&gt;- observacoes: String&lt;/div&gt;" style="text;strokeColor=none;fillColor=none;align=left;verticalAlign=top;spacingLeft=4;spacingRight=4;overflow=hidden;rotatable=0;points=[[0,0.5],[1,0.5]];portConstraint=eastwest;whiteSpace=wrap;html=1;" parent="cK3SOVMdzuHlb-Z2l-2t-17" vertex="1">
          <mxGeometry y="26" width="206" height="94" as="geometry" />
        </mxCell>
        <mxCell id="cK3SOVMdzuHlb-Z2l-2t-19" value="" style="line;strokeWidth=1;fillColor=none;align=left;verticalAlign=middle;spacingTop=-1;spacingLeft=3;spacingRight=3;rotatable=0;labelPosition=right;points=[];portConstraint=eastwest;strokeColor=inherit;" parent="cK3SOVMdzuHlb-Z2l-2t-17" vertex="1">
          <mxGeometry y="120" width="206" height="10" as="geometry" />
        </mxCell>
        <mxCell id="cK3SOVMdzuHlb-Z2l-2t-20" value="&lt;div&gt;+ registrarFormaPagamento(): void&lt;/div&gt;&lt;div&gt;+ aplicarPromocao(): void&lt;/div&gt;&lt;div&gt;&lt;br&gt;&lt;/div&gt;" style="text;strokeColor=none;fillColor=none;align=left;verticalAlign=top;spacingLeft=4;spacingRight=4;overflow=hidden;rotatable=0;points=[[0,0.5],[1,0.5]];portConstraint=eastwest;whiteSpace=wrap;html=1;" parent="cK3SOVMdzuHlb-Z2l-2t-17" vertex="1">
          <mxGeometry y="130" width="206" height="40" as="geometry" />
        </mxCell>
        <mxCell id="cK3SOVMdzuHlb-Z2l-2t-31" value="Tem" style="endArrow=none;html=1;endSize=12;startArrow=diamondThin;startSize=14;startFill=1;rounded=0;endFill=0;" parent="1" source="cK3SOVMdzuHlb-Z2l-2t-1" target="cK3SOVMdzuHlb-Z2l-2t-5" edge="1">
          <mxGeometry relative="1" as="geometry">
            <mxPoint x="260" y="130.02836879432618" as="sourcePoint" />
            <mxPoint x="470" y="123.07801418439715" as="targetPoint" />
            <Array as="points" />
          </mxGeometry>
        </mxCell>
        <mxCell id="cK3SOVMdzuHlb-Z2l-2t-32" value="1&lt;div&gt;&lt;br&gt;&lt;/div&gt;" style="edgeLabel;resizable=0;html=1;align=left;verticalAlign=top;" parent="cK3SOVMdzuHlb-Z2l-2t-31" connectable="0" vertex="1">
          <mxGeometry x="-1" relative="1" as="geometry">
            <mxPoint x="4" y="-2" as="offset" />
          </mxGeometry>
        </mxCell>
        <mxCell id="cK3SOVMdzuHlb-Z2l-2t-33" value="0..*" style="edgeLabel;resizable=0;html=1;align=right;verticalAlign=top;" parent="cK3SOVMdzuHlb-Z2l-2t-31" connectable="0" vertex="1">
          <mxGeometry x="1" relative="1" as="geometry" />
        </mxCell>
        <mxCell id="cK3SOVMdzuHlb-Z2l-2t-36" value="" style="endArrow=none;html=1;endSize=12;startArrow=diamondThin;startSize=14;startFill=1;rounded=0;endFill=0;" parent="1" source="cK3SOVMdzuHlb-Z2l-2t-1" target="cK3SOVMdzuHlb-Z2l-2t-13" edge="1">
          <mxGeometry relative="1" as="geometry">
            <mxPoint x="340" y="250" as="sourcePoint" />
            <mxPoint x="550" y="250" as="targetPoint" />
            <Array as="points" />
          </mxGeometry>
        </mxCell>
        <mxCell id="Uev11RCgkz0eMrtclTKq-8" value="" style="endArrow=none;html=1;endSize=12;startArrow=diamondThin;startSize=14;startFill=1;rounded=0;endFill=0;edgeStyle=orthogonalEdgeStyle;" parent="1" source="cK3SOVMdzuHlb-Z2l-2t-9" target="cK3SOVMdzuHlb-Z2l-2t-13" edge="1">
          <mxGeometry relative="1" as="geometry">
            <mxPoint x="680" y="300" as="sourcePoint" />
            <mxPoint x="680" y="406" as="targetPoint" />
            <Array as="points">
              <mxPoint x="760" y="130" />
              <mxPoint x="760" y="230" />
              <mxPoint x="180" y="230" />
            </Array>
          </mxGeometry>
        </mxCell>
        <mxCell id="Uev11RCgkz0eMrtclTKq-14" value="" style="endArrow=diamondThin;endFill=0;endSize=24;html=1;rounded=0;" parent="1" source="cK3SOVMdzuHlb-Z2l-2t-9" target="cK3SOVMdzuHlb-Z2l-2t-17" edge="1">
          <mxGeometry width="160" relative="1" as="geometry">
            <mxPoint x="330" y="280" as="sourcePoint" />
            <mxPoint x="490" y="280" as="targetPoint" />
            <Array as="points">
              <mxPoint x="750" y="250" />
            </Array>
          </mxGeometry>
        </mxCell>
        <mxCell id="Uev11RCgkz0eMrtclTKq-16" value="1&lt;div&gt;&lt;br&gt;&lt;/div&gt;" style="edgeLabel;resizable=0;html=1;align=left;verticalAlign=top;" parent="1" connectable="0" vertex="1">
          <mxGeometry x="850" y="180" as="geometry" />
        </mxCell>
        <mxCell id="Uev11RCgkz0eMrtclTKq-17" value="0..*" style="edgeLabel;resizable=0;html=1;align=right;verticalAlign=top;" parent="1" connectable="0" vertex="1">
          <mxGeometry x="704" y="311" as="geometry" />
        </mxCell>
        <mxCell id="Uev11RCgkz0eMrtclTKq-22" value="" style="endArrow=diamondThin;endFill=1;endSize=24;html=1;rounded=0;" parent="1" source="cK3SOVMdzuHlb-Z2l-2t-17" target="cK3SOVMdzuHlb-Z2l-2t-5" edge="1">
          <mxGeometry width="160" relative="1" as="geometry">
            <mxPoint x="980" y="460" as="sourcePoint" />
            <mxPoint x="980" y="370" as="targetPoint" />
          </mxGeometry>
        </mxCell>
        <mxCell id="Uev11RCgkz0eMrtclTKq-23" value="1..*" style="edgeLabel;resizable=0;html=1;align=right;verticalAlign=top;" parent="1" connectable="0" vertex="1">
          <mxGeometry x="620" y="205" as="geometry" />
        </mxCell>
        <mxCell id="Uev11RCgkz0eMrtclTKq-24" value="0..*" style="edgeLabel;resizable=0;html=1;align=right;verticalAlign=top;" parent="1" connectable="0" vertex="1">
          <mxGeometry x="606" y="300" as="geometry" />
        </mxCell>
        <mxCell id="cTLOUE46LRVvWe_v4zAX-8" value="1" style="text;html=1;align=center;verticalAlign=middle;resizable=0;points=[];autosize=1;strokeColor=none;fillColor=none;" parent="1" vertex="1">
          <mxGeometry x="793" y="129" width="30" height="30" as="geometry" />
        </mxCell>
        <mxCell id="cTLOUE46LRVvWe_v4zAX-9" value="&lt;div&gt;0..*&lt;/div&gt;" style="text;html=1;align=center;verticalAlign=middle;resizable=0;points=[];autosize=1;strokeColor=none;fillColor=none;" parent="1" vertex="1">
          <mxGeometry x="180" y="296" width="40" height="30" as="geometry" />
        </mxCell>
        <mxCell id="cTLOUE46LRVvWe_v4zAX-10" value="1..*" style="text;html=1;align=center;verticalAlign=middle;resizable=0;points=[];autosize=1;strokeColor=none;fillColor=none;" parent="1" vertex="1">
          <mxGeometry x="100" y="182" width="40" height="30" as="geometry" />
        </mxCell>
        <mxCell id="cTLOUE46LRVvWe_v4zAX-11" value="1" style="text;html=1;align=center;verticalAlign=middle;resizable=0;points=[];autosize=1;strokeColor=none;fillColor=none;" parent="1" vertex="1">
          <mxGeometry x="110" y="296" width="30" height="30" as="geometry" />
        </mxCell>
        <mxCell id="6P0651K7S6vp2Fvs8Khy-11" value="ItemVenda" style="swimlane;fontStyle=1;align=center;verticalAlign=top;childLayout=stackLayout;horizontal=1;startSize=26;horizontalStack=0;resizeParent=1;resizeParentMax=0;resizeLast=0;collapsible=1;marginBottom=0;whiteSpace=wrap;html=1;fillColor=#647687;strokeColor=#314354;fontColor=#ffffff;" vertex="1" parent="1">
          <mxGeometry x="770" y="360" width="240" height="110" as="geometry" />
        </mxCell>
        <mxCell id="6P0651K7S6vp2Fvs8Khy-12" value="&lt;div&gt;- produto: Produto&lt;/div&gt;- quantidade: int&lt;br&gt;- valor: double&lt;div&gt;- valorTotal: double&lt;/div&gt;" style="text;strokeColor=none;fillColor=none;align=left;verticalAlign=top;spacingLeft=4;spacingRight=4;overflow=hidden;rotatable=0;points=[[0,0.5],[1,0.5]];portConstraint=eastwest;whiteSpace=wrap;html=1;" vertex="1" parent="6P0651K7S6vp2Fvs8Khy-11">
          <mxGeometry y="26" width="240" height="84" as="geometry" />
        </mxCell>
        <mxCell id="6P0651K7S6vp2Fvs8Khy-13" value="" style="endArrow=diamondThin;endFill=1;endSize=24;html=1;rounded=0;" edge="1" parent="1" source="6P0651K7S6vp2Fvs8Khy-11" target="cK3SOVMdzuHlb-Z2l-2t-17">
          <mxGeometry width="160" relative="1" as="geometry">
            <mxPoint x="710" y="445" as="sourcePoint" />
            <mxPoint x="711" y="320" as="targetPoint" />
          </mxGeometry>
        </mxCell>
        <mxCell id="6P0651K7S6vp2Fvs8Khy-17" value="0..*" style="edgeLabel;resizable=0;html=1;align=right;verticalAlign=top;" connectable="0" vertex="1" parent="1">
          <mxGeometry x="768" y="390" as="geometry" />
        </mxCell>
        <mxCell id="6P0651K7S6vp2Fvs8Khy-18" value="1" style="edgeLabel;resizable=0;html=1;align=left;verticalAlign=top;" connectable="0" vertex="1" parent="1">
          <mxGeometry x="682" y="388" as="geometry" />
        </mxCell>
      </root>
    </mxGraphModel>
  </diagram>
</mxfile>
